<?xml version="1.0" encoding="utf-8"?>
<!-- Generator: Adobe Illustrator 17.0.0, SVG Export Plug-In . SVG Version: 6.00 Build 0)  -->
<!DOCTYPE svg PUBLIC "-//W3C//DTD SVG 1.1//EN" "http://www.w3.org/Graphics/SVG/1.1/DTD/svg11.dtd">
<svg version="1.1" id="Layer_1" xmlns="http://www.w3.org/2000/svg" xmlns:xlink="http://www.w3.org/1999/xlink" x="0px" y="0px"
	 width="272.842px" height="292.316px" viewBox="0 0 272.842 292.316" enable-background="new 0 0 272.842 292.316"
	 xml:space="preserve">
<g>
	<path fill="none" d="M109.141,70.051c2.025-3.165,6.179-4.078,9.344-2.053c1.812,1.159,2.949,3.059,3.217,5.065h15.732
		C105.61,52.059,51.229,16.44,51.229,16.439c-6.763-4.121-15.809-2.213-19.93,4.55c-4.122,6.763-1.877,16.015,4.887,20.137
		l52.636,31.937h19.255C108.198,72.015,108.545,70.981,109.141,70.051z M49.076,31.615c-2.025,3.164-6.314,4.288-9.48,2.262
		c-3.165-2.026-3.941-6.39-1.916-9.555c2.026-3.165,6.178-4.078,9.344-2.052C50.189,24.294,51.102,28.449,49.076,31.615z
		 M73.995,55.889c-3.165-2.025-3.942-6.389-1.916-9.555c2.025-3.166,6.179-4.078,9.344-2.052c3.166,2.026,4.289,6.313,2.263,9.479
		C81.66,56.927,77.162,57.915,73.995,55.889z"/>
	<path fill="none" d="M235.806,87.319H27.908c-6.92,0-13.652,6.336-13.652,14.256s6.732,14.652,14.652,14.652h114.838v50.292v7.127
		H28.908c-7.92,0-14.652,6.336-14.652,14.256c0,7.92,6.732,14.256,15.652,14.256h207.898c10.88,0,20.78-9.504,20.78-21.383v-71.676
		C258.586,97.219,248.686,87.319,235.806,87.319z M31.731,108.578c-3.758,0-6.765-3.258-6.765-7.016
		c0-3.758,3.007-6.765,6.765-6.765c3.759,0,6.765,3.007,6.765,6.765C38.496,105.32,35.49,108.578,31.731,108.578z M72.57,108.578
		c-3.758,0-6.764-3.258-6.764-7.016c0-3.758,3.006-6.765,6.764-6.765c3.76,0,7.016,3.007,7.016,6.765
		C79.586,105.32,76.33,108.578,72.57,108.578z M116.57,108.578c-3.758,0-6.764-3.258-6.764-7.016c0-3.758,3.006-6.765,6.764-6.765
		c3.76,0,7.016,3.007,7.016,6.765C123.586,105.32,120.33,108.578,116.57,108.578z M31.731,194.38c-3.758,0-6.765-3.258-6.765-7.016
		s3.007-6.766,6.765-6.766c3.759,0,6.765,3.008,6.765,6.766S35.49,194.38,31.731,194.38z M72.57,194.38
		c-3.758,0-6.764-3.258-6.764-7.016s3.006-6.766,6.764-6.766c3.76,0,7.016,3.008,7.016,6.766S76.33,194.38,72.57,194.38z
		 M116.57,194.38c-3.758,0-6.764-3.258-6.764-7.016s3.006-6.766,6.764-6.766c3.76,0,7.016,3.008,7.016,6.766
		S120.33,194.38,116.57,194.38z M167.992,134.244c-5.939,0-10.691-5.148-10.691-11.088c0-5.939,4.752-10.691,10.691-10.691
		c5.94,0,10.691,4.752,10.691,10.691C178.684,129.096,173.932,134.244,167.992,134.244z M200.464,177.012
		c-23.467,0-21.78-21.384-21.78-21.384h43.164C221.848,155.628,223.931,177.012,200.464,177.012z M232.539,134.244
		c-5.939,0-10.691-5.148-10.691-11.088c0-5.939,4.752-10.691,10.691-10.691c5.94,0,11.088,4.752,11.088,10.691
		C243.627,129.096,238.479,134.244,232.539,134.244z"/>
	<path fill="none" d="M118.73,222.544c-3.166,2.025-7.455,0.901-9.48-2.263c-0.77-1.204-1.113-2.55-1.071-3.868H90.522
		L35.83,251.157c-6.978,3.744-9.915,12.509-6.171,19.488c3.744,6.98,12.671,9.381,19.65,5.636c-0.001,0,55.734-38.32,87.862-59.868
		h-15.426C121.885,218.797,120.844,221.191,118.73,222.544z M47.269,268.272c-3.166,2.025-7.665,1.036-9.69-2.129
		c-2.026-3.165-0.903-7.453,2.263-9.479c3.165-2.025,7.318-1.113,9.344,2.053C51.212,261.882,50.436,266.246,47.269,268.272z
		 M84.331,244.556c-3.167,2.025-7.665,1.038-9.691-2.127c-2.026-3.166-0.903-7.453,2.263-9.48c3.165-2.025,7.318-1.113,9.344,2.053
		C88.273,238.167,87.496,242.53,84.331,244.556z"/>
	<path d="M27.908,73.063C13.068,73.063,0,85.735,0,101.575c0,15.84,13.068,28.908,28.908,28.908h100.187v28.512H28.908
		C13.068,158.994,0,172.061,0,187.901c0,15.84,13.068,28.512,28.908,28.512h38.141l-38.145,21.833
		c-13.958,7.488-19.296,25.181-11.808,39.139c7.488,13.959,24.993,18.948,38.952,11.459L158.1,216.413h78.706
		c19.8,0,36.036-15.84,36.036-35.639v-71.676c0-19.8-16.236-36.036-37.036-36.036h-76.527C150.918,67.347,58.646,4.266,58.646,4.266
		c-13.525-8.242-31.278-4.222-39.521,9.305c-8.242,13.526-3.884,31.485,9.643,39.728l34.864,19.62 M36.186,41.125
		c-6.764-4.122-9.009-13.374-4.887-20.137c4.121-6.763,13.167-8.671,19.93-4.55c0,0.001,54.382,35.62,86.205,56.624h-15.732
		c-0.268-2.006-1.405-3.906-3.217-5.065c-3.165-2.025-7.318-1.113-9.344,2.053c-0.596,0.93-0.942,1.964-1.064,3.012H88.821
		L36.186,41.125z M49.31,276.281c-6.979,3.745-15.906,1.344-19.65-5.636c-3.744-6.979-0.808-15.744,6.171-19.488l54.692-34.744
		h17.656c-0.042,1.318,0.302,2.664,1.071,3.868c2.025,3.164,6.314,4.288,9.48,2.263c2.113-1.353,3.154-3.747,3.016-6.131h15.426
		C105.044,237.961,49.309,276.281,49.31,276.281z M258.586,180.774c0,11.879-9.9,21.383-20.78,21.383H29.908
		c-8.92,0-15.652-6.336-15.652-14.256c0-7.92,6.732-14.256,14.652-14.256h114.838v-7.127v-50.292H28.908
		c-7.92,0-14.652-6.732-14.652-14.652s6.732-14.256,13.652-14.256h207.898c12.88,0,22.78,9.9,22.78,21.78V180.774z"/>
	<path d="M72.57,180.598c-3.758,0-6.764,3.008-6.764,6.766s3.006,7.016,6.764,7.016c3.76,0,7.016-3.258,7.016-7.016
		S76.33,180.598,72.57,180.598z"/>
	<path d="M116.57,180.598c-3.758,0-6.764,3.008-6.764,6.766s3.006,7.016,6.764,7.016c3.76,0,7.016-3.258,7.016-7.016
		S120.33,180.598,116.57,180.598z"/>
	<path d="M167.992,112.465c-5.939,0-10.691,4.752-10.691,10.691c0,5.939,4.752,11.088,10.691,11.088
		c5.94,0,10.691-5.148,10.691-11.088C178.684,117.217,173.932,112.465,167.992,112.465z"/>
	<path d="M31.731,180.598c-3.758,0-6.765,3.008-6.765,6.766s3.007,7.016,6.765,7.016c3.759,0,6.765-3.258,6.765-7.016
		S35.49,180.598,31.731,180.598z"/>
	<path d="M178.684,155.628c0,0-1.686,21.384,21.78,21.384s21.384-21.384,21.384-21.384H178.684z"/>
	<path d="M232.539,112.465c-5.939,0-10.691,4.752-10.691,10.691c0,5.939,4.752,11.088,10.691,11.088
		c5.94,0,11.088-5.148,11.088-11.088C243.627,117.217,238.479,112.465,232.539,112.465z"/>
	<path d="M47.023,22.27c-3.166-2.025-7.317-1.113-9.344,2.052c-2.025,3.165-1.249,7.529,1.916,9.555
		c3.166,2.025,7.455,0.902,9.48-2.262C51.102,28.449,50.189,24.294,47.023,22.27z"/>
	<path d="M39.842,256.665c-3.166,2.025-4.289,6.313-2.263,9.479c2.025,3.165,6.524,4.154,9.69,2.129
		c3.166-2.026,3.942-6.391,1.916-9.555C47.16,255.552,43.007,254.64,39.842,256.665z"/>
	<path d="M81.423,44.282c-3.165-2.026-7.318-1.114-9.344,2.052c-2.026,3.166-1.249,7.53,1.916,9.555
		c3.167,2.026,7.665,1.038,9.69-2.127C85.712,50.596,84.589,46.308,81.423,44.282z"/>
	<path d="M76.903,232.948c-3.166,2.027-4.289,6.314-2.263,9.48c2.025,3.165,6.524,4.152,9.691,2.127
		c3.165-2.025,3.942-6.389,1.916-9.555C84.222,231.835,80.068,230.923,76.903,232.948z"/>
	<path d="M72.57,94.798c-3.758,0-6.764,3.007-6.764,6.765c0,3.758,3.006,7.016,6.764,7.016c3.76,0,7.016-3.258,7.016-7.016
		C79.586,97.805,76.33,94.798,72.57,94.798z"/>
	<path d="M116.57,94.798c-3.758,0-6.764,3.007-6.764,6.765c0,3.758,3.006,7.016,6.764,7.016c3.76,0,7.016-3.258,7.016-7.016
		C123.586,97.805,120.33,94.798,116.57,94.798z"/>
	<path d="M31.731,94.798c-3.758,0-6.765,3.007-6.765,6.765c0,3.758,3.007,7.016,6.765,7.016c3.759,0,6.765-3.258,6.765-7.016
		C38.496,97.805,35.49,94.798,31.731,94.798z"/>
</g>
</svg>
